<?xml version="1.0" encoding="UTF-8"?>
<svg xmlns="http://www.w3.org/2000/svg" xmlns:xlink="http://www.w3.org/1999/xlink" viewBox="0 0 48 48" width="48px" height="48px">
<g id="surface7956039">
<path style=" stroke:none;fill-rule:nonzero;fill:rgb(90.588236%,29.803923%,23.529412%);fill-opacity:1;" d="M 24 4 C 12.953125 4 4 12.953125 4 24 C 4 34.027344 11.386719 42.304688 21.011719 43.753906 L 21.011719 29.300781 L 16.0625 29.300781 L 16.0625 24.042969 L 21.011719 24.042969 L 21.011719 20.542969 C 21.011719 14.753906 23.832031 12.210938 28.644531 12.210938 C 30.953125 12.210938 32.171875 12.378906 32.746094 12.457031 L 32.746094 17.046875 L 29.464844 17.046875 C 27.421875 17.046875 26.707031 18.984375 26.707031 21.167969 L 26.707031 24.042969 L 32.695312 24.042969 L 31.882812 29.300781 L 26.707031 29.300781 L 26.707031 43.792969 C 36.46875 42.472656 44 34.125 44 24 C 44 12.953125 35.046875 4 24 4 Z M 24 4 "/>
</g>
</svg>
