<?xml version="1.0" encoding="UTF-8"?>
<svg xmlns="http://www.w3.org/2000/svg" xmlns:xlink="http://www.w3.org/1999/xlink" viewBox="0 0 48 48" width="48px" height="48px">
<g id="surface7952224">
<path style=" stroke:none;fill-rule:nonzero;fill:rgb(90.588236%,29.803923%,23.529412%);fill-opacity:1;" d="M 38 6 L 10 6 C 7.789062 6 6 7.789062 6 10 L 6 38 C 6 40.210938 7.789062 42 10 42 L 38 42 C 40.210938 42 42 40.210938 42 38 L 42 10 C 42 7.789062 40.210938 6 38 6 Z M 34.101562 19.027344 C 34.101562 19.199219 34.101562 19.371094 34.101562 19.714844 C 34.101562 26.226562 29.128906 33.773438 20.042969 33.773438 C 17.300781 33.773438 14.726562 32.914062 12.5 31.542969 C 12.84375 31.542969 13.359375 31.542969 13.699219 31.542969 C 15.929688 31.542969 18.15625 30.6875 19.871094 29.484375 C 17.644531 29.484375 15.929688 27.945312 15.242188 26.058594 C 15.585938 26.058594 15.929688 26.230469 16.101562 26.230469 C 16.617188 26.230469 16.960938 26.230469 17.472656 26.058594 C 15.246094 25.542969 13.53125 23.65625 13.53125 21.257812 C 14.21875 21.601562 14.902344 21.773438 15.761719 21.945312 C 14.386719 20.742188 13.53125 19.371094 13.53125 17.65625 C 13.53125 16.800781 13.703125 15.945312 14.21875 15.257812 C 16.617188 18.171875 20.21875 20.230469 24.332031 20.398438 C 24.332031 20.058594 24.160156 19.714844 24.160156 19.199219 C 24.160156 16.457031 26.386719 14.226562 29.132812 14.226562 C 30.503906 14.226562 31.875 14.742188 32.730469 15.769531 C 33.933594 15.597656 34.960938 15.085938 35.816406 14.570312 C 35.476562 15.769531 34.617188 16.628906 33.589844 17.3125 C 34.617188 17.140625 35.476562 16.96875 36.503906 16.453125 C 35.8125 17.484375 34.957031 18.34375 34.101562 19.027344 Z M 34.101562 19.027344 "/>
</g>
</svg>
